<?xml version="1.0" encoding="UTF-8"?>
<svg width="42px" height="42px" viewBox="0 0 42 42" version="1.1" xmlns="http://www.w3.org/2000/svg" xmlns:xlink="http://www.w3.org/1999/xlink">
    <!-- Generator: Sketch 50 (54983) - http://www.bohemiancoding.com/sketch -->
    <title>fight</title>
    <desc>Created with Sketch.</desc>
    <defs></defs>
    <g id="Page-1" stroke="none" stroke-width="1" fill="none" fill-rule="evenodd">
        <g id="fight" transform="translate(-3.000000, -4.000000)">
            <g id="Group" transform="translate(24.000000, 24.500000) rotate(45.000000) translate(-24.000000, -24.500000) translate(19.000000, -4.000000)">
                <polygon id="Rectangle" fill="#D8D8D8" points="0 6 5 0.430664062 10 6 10 48 0 48"></polygon>
                <path d="M5,0.430664062 L5,48 L0,48 L0,6 L5,0.430664062 Z" id="Combined-Shape" fill="#FFFFFF"></path>
                <rect id="Rectangle-2" stroke="#979797" fill="#D8D8D8" x="4.5" y="48.5" width="1" height="8"></rect>
            </g>
            <g id="Group-Copy" transform="translate(24.000000, 24.500000) rotate(-45.000000) translate(-24.000000, -24.500000) translate(19.000000, -4.000000)">
                <polygon id="Rectangle" fill="#D8D8D8" points="0 6 5 0.430664062 10 6 10 48 0 48"></polygon>
                <path d="M5,0.430664062 L5,48 L0,48 L0,6 L5,0.430664062 Z" id="Combined-Shape" fill="#FFFFFF"></path>
                <rect id="Rectangle-2" stroke="#979797" fill="#D8D8D8" x="4.5" y="48.5" width="1" height="8"></rect>
            </g>
        </g>
    </g>
</svg>