<?xml version="1.0" encoding="UTF-8"?>
<svg width="48px" height="48px" viewBox="0 0 48 48" version="1.1" xmlns="http://www.w3.org/2000/svg" xmlns:xlink="http://www.w3.org/1999/xlink">
    <!-- Generator: Sketch 50 (54983) - http://www.bohemiancoding.com/sketch -->
    <title>Fill2</title>
    <desc>Created with Sketch.</desc>
    <defs></defs>
    <g id="Page-1" stroke="none" stroke-width="1" fill="none" fill-rule="evenodd">
        <g id="Fill2">
            <path d="M48,41 L48,48 L41,48 L41,47 L47,47 L47,41 L48,41 Z M48,7 L47,7 L47,1 L41,1 L41,0 L48,0 L48,7 Z M0,41 L1,41 L1,47 L7,47 L7,48 L0,48 L0,41 Z M0,7 L0,0 L7,0 L7,1 L1,1 L1,7 L0,7 Z" id="Combined-Shape" fill="#F7F7F7"></path>
            <path d="M9,0 L39,0 L39,1 L9,1 L9,0 Z M9,47 L39,47 L39,48 L9,48 L9,47 Z M48,9 L48,39 L47,39 L47,9 L48,9 Z M1,9 L1,39 L0,39 L0,9 L1,9 Z" id="Combined-Shape" fill="#FDFDFD"></path>
        </g>
    </g>
</svg>