<?xml version="1.0" encoding="UTF-8"?>
<svg width="23px" height="24px" viewBox="0 0 23 24" version="1.1" xmlns="http://www.w3.org/2000/svg" xmlns:xlink="http://www.w3.org/1999/xlink">
    <!-- Generator: Sketch 50 (54983) - http://www.bohemiancoding.com/sketch -->
    <title>icon2</title>
    <desc>Created with Sketch.</desc>
    <defs></defs>
    <g id="Page-1" stroke="none" stroke-width="1" fill="none" fill-rule="evenodd">
        <path d="M5,18 L14,18 C14.5522847,18 15,18.4477153 15,19 C15,20.6567153 16.3432847,22 18,22 C19.6567153,22 21,20.6567153 21,19 L21,2 L5,2 L5,18 Z M3,18 L3,1 C3,0.44771525 3.44771525,0 4,0 L22,0 C22.5522847,0 23,0.44771525 23,1 L23,19 C23,21.7612847 20.7612847,24 18,24 L5,24 C2.23871525,24 0,21.7612847 0,19 C0,18.4477153 0.44771525,18 1,18 L3,18 Z M12,11 L12,9 L18,9 L18,11 L12,11 Z M8,11 L8,9 L10,9 L10,11 L8,11 Z M12,15 L12,13 L18,13 L18,15 L12,15 Z M8,15 L8,13 L10,13 L10,15 L8,15 Z M12,7 L12,5 L18,5 L18,7 L12,7 Z M8,7 L8,5 L10,5 L10,7 L8,7 Z" id="icon2" fill="#7444C0" fill-rule="nonzero"></path>
    </g>
</svg>