<?xml version="1.0" encoding="UTF-8"?>
<svg width="22px" height="22px" viewBox="0 0 22 22" version="1.1" xmlns="http://www.w3.org/2000/svg" xmlns:xlink="http://www.w3.org/1999/xlink">
    <!-- Generator: Sketch 50 (54983) - http://www.bohemiancoding.com/sketch -->
    <title>icon3</title>
    <desc>Created with Sketch.</desc>
    <defs></defs>
    <g id="Page-1" stroke="none" stroke-width="1" fill="none" fill-rule="evenodd">
        <path d="M11,6 C9.34314575,6 8,4.65685425 8,3 C8,1.34314575 9.34314575,0 11,0 C12.6568542,0 14,1.34314575 14,3 C14,4.65685425 12.6568542,6 11,6 Z M11,14 C9.34314575,14 8,12.6568542 8,11 C8,9.34314575 9.34314575,8 11,8 C12.6568542,8 14,9.34314575 14,11 C14,12.6568542 12.6568542,14 11,14 Z M11,22 C9.34314575,22 8,20.6568542 8,19 C8,17.3431458 9.34314575,16 11,16 C12.6568542,16 14,17.3431458 14,19 C14,20.6568542 12.6568542,22 11,22 Z M19,6 C17.3431458,6 16,4.65685425 16,3 C16,1.34314575 17.3431458,0 19,0 C20.6568542,0 22,1.34314575 22,3 C22,4.65685425 20.6568542,6 19,6 Z M19,14 C17.3431458,14 16,12.6568542 16,11 C16,9.34314575 17.3431458,8 19,8 C20.6568542,8 22,9.34314575 22,11 C22,12.6568542 20.6568542,14 19,14 Z M19,22 C17.3431458,22 16,20.6568542 16,19 C16,17.3431458 17.3431458,16 19,16 C20.6568542,16 22,17.3431458 22,19 C22,20.6568542 20.6568542,22 19,22 Z M3,6 C1.34314575,6 0,4.65685425 0,3 C0,1.34314575 1.34314575,0 3,0 C4.65685425,0 6,1.34314575 6,3 C6,4.65685425 4.65685425,6 3,6 Z M3,14 C1.34314575,14 0,12.6568542 0,11 C0,9.34314575 1.34314575,8 3,8 C4.65685425,8 6,9.34314575 6,11 C6,12.6568542 4.65685425,14 3,14 Z M3,22 C1.34314575,22 0,20.6568542 0,19 C0,17.3431458 1.34314575,16 3,16 C4.65685425,16 6,17.3431458 6,19 C6,20.6568542 4.65685425,22 3,22 Z" id="icon3" fill="#7444C0" fill-rule="nonzero"></path>
    </g>
</svg>