<?xml version="1.0" encoding="UTF-8"?>
<svg width="113px" height="81px" viewBox="0 0 113 81" version="1.1" xmlns="http://www.w3.org/2000/svg" xmlns:xlink="http://www.w3.org/1999/xlink">
    <!-- Generator: Sketch 50 (54983) - http://www.bohemiancoding.com/sketch -->
    <title>newgame</title>
    <desc>Created with Sketch.</desc>
    <defs>
        <linearGradient x1="50%" y1="-2.48949813e-15%" x2="50%" y2="100%" id="linearGradient-1">
            <stop stop-color="#FFCC75" offset="0%"></stop>
            <stop stop-color="#EBAF6C" offset="100%"></stop>
        </linearGradient>
        <linearGradient x1="50%" y1="100%" x2="50%" y2="3.061617e-15%" id="linearGradient-2">
            <stop stop-color="#358877" offset="0%"></stop>
            <stop stop-color="#1A675D" offset="100%"></stop>
        </linearGradient>
        <linearGradient x1="50%" y1="100%" x2="50%" y2="3.061617e-15%" id="linearGradient-3">
            <stop stop-color="#CDA054" offset="0%"></stop>
            <stop stop-color="#D16D00" offset="100%"></stop>
        </linearGradient>
        <path d="M26.1126761,7.88258347e-15 L85.9103132,1.0658141e-14 C92.1803736,9.50634963e-15 97.6858268,4.16887917 99.3858794,10.2040659 L111.498555,53.2040659 C113.594992,60.6464156 109.261273,68.3791297 101.818923,70.4755662 C100.58363,70.8235361 99.3063569,71 98.0229892,71 L14,71 C6.2680135,71 9.46895252e-16,64.7319865 0,57 C-1.57167212e-16,55.7166323 0.176463873,54.4393592 0.524433814,53.2040659 L12.6371099,10.2040659 C14.3371625,4.16887917 19.8426157,8.25721877e-15 26.1126761,7.10542736e-15 Z" id="path-4"></path>
        <filter x="-6.7%" y="-10.6%" width="113.4%" height="121.1%" filterUnits="objectBoundingBox" id="filter-5">
            <feGaussianBlur stdDeviation="7.5" in="SourceAlpha" result="shadowBlurInner1"></feGaussianBlur>
            <feOffset dx="0" dy="0" in="shadowBlurInner1" result="shadowOffsetInner1"></feOffset>
            <feComposite in="shadowOffsetInner1" in2="SourceAlpha" operator="arithmetic" k2="-1" k3="1" result="shadowInnerInner1"></feComposite>
            <feColorMatrix values="0 0 0 0 0   0 0 0 0 0   0 0 0 0 0  0 0 0 0.5 0" type="matrix" in="shadowInnerInner1"></feColorMatrix>
        </filter>
    </defs>
    <g id="Page-1" stroke="none" stroke-width="1" fill="none" fill-rule="evenodd">
        <g id="newgame">
            <path d="M16.2273149,10 L87.0794934,10 C93.1331852,10 98.5011298,13.8909245 100.384627,19.6441517 L112.424316,56.4199219 L112.424316,67.0000001 C112.424316,74.7319866 106.156303,81.0000001 98.4243164,81.0000001 L14,81.0000001 C6.2680135,81.0000001 9.46895252e-16,74.7319866 0,67.0000001 L0,55.9072266 L16.2273149,10 Z" id="Rectangle-14-Copy-3" fill="url(#linearGradient-1)"></path>
            <g id="Rectangle-14-Copy-4">
                <use fill="url(#linearGradient-2)" fill-rule="evenodd" xlink:href="#path-4"></use>
                <use fill="black" fill-opacity="1" filter="url(#filter-5)" xlink:href="#path-4"></use>
                <path stroke="url(#linearGradient-3)" stroke-width="4" d="M26.1126761,2 C20.7383386,2 16.0193787,5.573325 14.5621908,10.7463422 L2.4495147,53.7463422 C2.15125475,54.805165 2,55.8999706 2,57 C2,63.627417 7.372583,69 14,69 L98.0229892,69 C99.1230187,69 100.217824,68.8487453 101.276647,68.5504853 C107.655804,66.7535397 111.37042,60.1254991 109.573475,53.7463422 L97.4607985,10.7463422 C96.0036106,5.573325 91.2846507,2 85.9103132,2 L26.1126761,2 Z" stroke-linejoin="square"></path>
            </g>
            <path d="M63.5566623,37.7917881 L63.512989,37.7917881 C61.6787108,37.7917881 59.9754525,37.7481148 58.3158675,37.7481148 C58.0538278,37.7481148 58.0538278,37.8354614 58.0538278,38.0975011 C58.0538278,40.193819 58.0538278,42.159117 58.0975011,43.512989 L58.0975011,43.6003355 C58.0975011,45.0415541 56.9619956,45.784 55.8264901,45.784 C54.6909845,45.784 53.555479,45.0415541 53.555479,43.5566623 L53.555479,43.512989 C53.555479,41.5913642 53.6428256,39.8007594 53.6428256,38.0538278 C53.6428256,37.7917881 53.555479,37.7044415 53.2934393,37.7044415 C51.5028344,37.7044415 49.8432494,37.7044415 48.2273377,37.7917881 C47.4412185,37.8354614 46,37.3113819 46,35.5644503 C46,34.4726181 46.6987726,33.3807859 48.0526446,33.3807859 L48.1399912,33.3807859 C49.3628433,33.4244592 51.3281413,33.4681325 53.4244592,33.4681325 C53.5991523,33.4681325 53.6428256,33.3371126 53.6428256,33.1624194 C53.6428256,31.4154879 53.6428256,29.7995762 53.555479,28.2273377 C53.5118057,26.7861192 54.5599647,26 55.8264901,26 C56.9619956,26 58.0975011,26.6987726 58.0975011,28.0526446 L58.0975011,28.1399912 C58.0538278,29.31917 58.0538278,31.1534481 58.0538278,33.1624194 C58.0538278,33.3807859 58.1411744,33.4681325 58.3595408,33.4681325 C60.3685121,33.4681325 62.2027903,33.4244592 63.512989,33.3807859 L63.5566623,33.3807859 C65.0415541,33.3807859 65.784,34.4726181 65.784,35.6081236 C65.784,36.6999558 65.0415541,37.7917881 63.5566623,37.7917881 Z" id="+" fill="#FFFFFF"></path>
        </g>
    </g>
</svg>